<?xml version="1.0" standalone="no"?><!DOCTYPE svg PUBLIC "-//W3C//DTD SVG 1.1//EN" "http://www.w3.org/Graphics/SVG/1.1/DTD/svg11.dtd"><svg t="1770617918596" class="icon" viewBox="0 0 1024 1024" version="1.1" xmlns="http://www.w3.org/2000/svg" p-id="8170" xmlns:xlink="http://www.w3.org/1999/xlink" width="200" height="200"><path d="M819.2 363.52H204.8c-28.16 0-51.2-23.04-51.2-51.2V76.8c0-28.16 23.04-51.2 51.2-51.2h614.4c28.16 0 51.2 23.04 51.2 51.2v235.52c0 28.16-23.04 51.2-51.2 51.2z" fill="#A9C6FF" p-id="8171"></path><path d="M972.8 998.4H51.2c-28.16 0-51.2-23.04-51.2-51.2V220.16c0-28.16 23.04-51.2 51.2-51.2h300.032c9.728 0 19.456 4.608 25.088 12.8l68.608 96.768c5.632 8.192 15.36 12.8 25.088 12.8H972.8c28.16 0 51.2 23.04 51.2 51.2v604.16c0 28.672-23.04 51.712-51.2 51.712z" fill="#1560F7" p-id="8172"></path><path d="M588.8 803.84H245.76c-19.456 0-35.84-15.872-35.84-35.84s15.872-35.84 35.84-35.84h343.04c19.456 0 35.84 15.872 35.84 35.84s-15.872 35.84-35.84 35.84zM414.72 604.16H245.76c-19.456 0-35.84-15.872-35.84-35.84 0-19.456 15.872-35.84 35.84-35.84h168.96c19.456 0 35.84 15.872 35.84 35.84s-15.872 35.84-35.84 35.84z" fill="#FFFFFF" p-id="8173"></path></svg>